# ToLaserBlade
# https://github.com/Iunius118/ToLaserBlade
# Copyright 2017 Iunius118
# This work is licensed under a Creative Commons Attribution-NonCommercial 4.0 International License.
# https://creativecommons.org/licenses/by-nc/4.0/

# Created by Metasequoia

mtllib laser_blade.mtl

v -0.093750 0.375000 0.093750
v -0.093750 0.312500 0.093750
v 0.093750 0.375000 0.093750
v 0.093750 0.312500 0.093750
v 0.093750 0.375000 -0.093750
v 0.093750 0.312500 -0.093750
v -0.093750 0.375000 -0.093750
v -0.093750 0.312500 -0.093750
v -0.031250 0.312500 0.031250
v -0.031250 0.000000 0.031250
v 0.031250 0.312500 0.031250
v 0.031250 0.000000 0.031250
v 0.031250 0.312500 -0.031250
v 0.031250 0.000000 -0.031250
v -0.031250 0.312500 -0.031250
v -0.031250 0.000000 -0.031250
v -0.031200 1.375000 0.031200
v -0.031200 0.375000 0.031200
v 0.031300 1.375000 0.031200
v 0.031300 0.375000 0.031200
v 0.031300 1.375000 -0.031300
v 0.031300 0.375000 -0.031300
v -0.031200 1.375000 -0.031300
v -0.031200 0.375000 -0.031300
v -0.062450 1.406300 0.062450
v -0.062450 0.343700 0.062450
v 0.062550 1.406300 0.062450
v 0.062550 0.343700 0.062450
v 0.062550 1.406300 -0.062550
v 0.062550 0.343700 -0.062550
v -0.062450 1.406300 -0.062550
v -0.062450 0.343700 -0.062550
v -0.093700 1.437500 0.093700
v -0.093700 0.375000 0.093700
v 0.093800 1.437500 0.093700
v 0.093800 0.375000 0.093700
v 0.093800 1.437500 -0.093800
v 0.093800 0.375000 -0.093800
v -0.093700 1.437500 -0.093800
v -0.093700 0.375000 -0.093800
v 0.330000 0.375000 -0.075000
v 0.360000 0.375000 -0.075000
v 0.390000 0.375000 -0.075000
v 0.330000 0.375000 -0.045000
v 0.360000 0.375000 -0.045000
v 0.390000 0.375000 -0.045000
v 0.420000 0.375000 -0.045000
v 0.330000 0.375000 -0.015000
v 0.360000 0.375000 -0.015000
v 0.390000 0.375000 -0.015000
v 0.420000 0.375000 -0.015000
v 0.330000 0.375000 0.015000
v 0.360000 0.375000 0.015000
v 0.390000 0.375000 0.015000
v 0.420000 0.375000 0.015000
v 0.330000 0.375000 0.045000
v 0.360000 0.375000 0.045000
v 0.390000 0.375000 0.045000
v 0.420000 0.375000 0.045000
v 0.330000 0.375000 0.075000
v 0.360000 0.375000 0.075000
v 0.390000 0.375000 0.075000
v 0.420000 0.375000 0.075000
v -0.420000 0.375000 -0.075000
v -0.390000 0.375000 -0.075000
v -0.420000 0.375000 -0.045000
v -0.390000 0.375000 -0.045000
v -0.420000 0.375000 -0.015000
v -0.390000 0.375000 -0.015000
v -0.420000 0.375000 0.015000
v -0.390000 0.375000 0.015000
v -0.420000 0.375000 0.045000
v -0.390000 0.375000 0.045000
v -0.360000 0.375000 0.045000
v -0.330000 0.375000 0.045000
v -0.420000 0.375000 0.075000
v -0.390000 0.375000 0.075000
v -0.360000 0.375000 0.075000
v -0.330000 0.375000 0.075000
v -0.045000 0.375000 0.300000
v -0.015000 0.375000 0.300000
v 0.015000 0.375000 0.300000
v -0.045000 0.375000 0.330000
v -0.015000 0.375000 0.330000
v 0.015000 0.375000 0.330000
v 0.045000 0.375000 0.330000
v -0.045000 0.375000 0.360000
v -0.015000 0.375000 0.360000
v 0.015000 0.375000 0.360000
v 0.045000 0.375000 0.360000
v -0.045000 0.375000 0.390000
v -0.015000 0.375000 0.390000
v 0.015000 0.375000 0.390000
v 0.045000 0.375000 0.390000
v -0.045000 0.375000 0.420000
v -0.015000 0.375000 0.420000
v 0.015000 0.375000 0.420000
v 0.045000 0.375000 0.420000
v -0.045000 0.375000 0.450000
v -0.015000 0.375000 0.450000
v 0.015000 0.375000 0.450000
v -0.045000 0.375000 -0.450000
v -0.015000 0.375000 -0.450000
v 0.015000 0.375000 -0.450000
v 0.045000 0.375000 -0.450000
v -0.045000 0.375000 -0.420000
v -0.015000 0.375000 -0.420000
v 0.015000 0.375000 -0.420000
v 0.045000 0.375000 -0.420000
v -0.045000 0.375000 -0.390000
v -0.015000 0.375000 -0.390000
v 0.015000 0.375000 -0.390000
v 0.045000 0.375000 -0.390000
v -0.045000 0.375000 -0.360000
v -0.015000 0.375000 -0.360000
v 0.015000 0.375000 -0.360000
v 0.045000 0.375000 -0.360000
v -0.045000 0.375000 -0.330000
v -0.015000 0.375000 -0.330000
v -0.045000 0.375000 -0.300000
v -0.015000 0.375000 -0.300000
# 121 vertices

vt 0.00000 0.00000
vt 1.00000 0.00000
vt 1.00000 1.00000
vt 0.00000 1.00000
vt 0.33333 0.00000
vt 0.33333 0.20000
vt 0.00000 0.20000
vt 0.66667 0.00000
vt 0.66667 0.20000
vt 0.33333 0.40000
vt 0.00000 0.40000
vt 1.00000 0.20000
vt 1.00000 0.40000
vt 0.66667 0.40000
vt 0.33333 0.60000
vt 0.00000 0.60000
vt 0.66667 0.60000
vt 0.33333 0.80000
vt 0.00000 0.80000
vt 1.00000 0.60000
vt 1.00000 0.80000
vt 0.66667 0.80000
vt 0.33333 1.00000
vt 0.66667 1.00000
# 24 texture vertices

vn 0.00000 0.00000 1.00000
vn 1.00000 0.00000 0.00000
vn 0.00000 0.00000 -1.00000
vn 0.00000 1.00000 0.00000
vn -1.00000 0.00000 0.00000
vn 0.00000 -1.00000 0.00000
# 6 normal vertices

g Hilt
usemtl mat_Hilt
f 2/4/1 4/3/1 3/2/1 1/1/1
f 4/4/2 6/3/2 5/2/2 3/1/2
f 6/4/3 8/3/3 7/2/3 5/1/3
f 8/4/5 2/3/5 1/2/5 7/1/5
f 1/4/4 3/3/4 5/2/4 7/1/4
f 8/4/6 6/3/6 4/2/6 2/1/6
f 10/4/1 12/3/1 11/2/1 9/1/1
f 12/4/2 14/3/2 13/2/2 11/1/2
f 14/4/3 16/3/3 15/2/3 13/1/3
f 16/4/5 10/3/5 9/2/5 15/1/5
f 16/4/6 14/3/6 12/2/6 10/1/6
g Blade_core
usemtl mat_Blade_core
f 18/4/1 20/3/1 19/2/1 17/1/1
f 20/4/2 22/3/2 21/2/2 19/1/2
f 22/4/3 24/3/3 23/2/3 21/1/3
f 24/4/5 18/3/5 17/2/5 23/1/5
f 17/4/4 19/3/4 21/2/4 23/1/4
f 24/4/6 22/3/6 20/2/6 18/1/6
g Blade_halo_1
usemtl mat_Blade_halo_1
f 26/4/1 28/3/1 27/2/1 25/1/1
f 28/4/2 30/3/2 29/2/2 27/1/2
f 30/4/3 32/3/3 31/2/3 29/1/3
f 32/4/5 26/3/5 25/2/5 31/1/5
f 25/4/4 27/3/4 29/2/4 31/1/4
f 32/4/6 30/3/6 28/2/6 26/1/6
g Blade_halo_2
usemtl mat_Blade_halo_2
f 34/4/1 36/3/1 35/2/1 33/1/1
f 36/4/2 38/3/2 37/2/2 35/1/2
f 38/4/3 40/3/3 39/2/3 37/1/3
f 40/4/5 34/3/5 33/2/5 39/1/5
f 33/4/4 35/3/4 37/2/4 39/1/4
f 40/4/6 38/3/6 36/2/6 34/1/6
g Invisible
usemtl mat_Hilt
f 44/7/4 45/6/4 42/5/4 41/1/4
f 45/6/4 46/9/4 43/8/4 42/5/4
f 48/11/4 49/10/4 45/6/4 44/7/4
f 50/14/4 51/13/4 47/12/4 46/9/4
f 52/16/4 53/15/4 49/10/4 48/11/4
f 53/15/4 54/17/4 50/14/4 49/10/4
f 56/19/4 57/18/4 53/15/4 52/16/4
f 58/22/4 59/21/4 55/20/4 54/17/4
f 60/4/4 61/23/4 57/18/4 56/19/4
f 62/24/4 63/3/4 59/21/4 58/22/4
f 66/7/4 67/6/4 65/5/4 64/1/4
f 68/11/4 69/10/4 67/6/4 66/7/4
f 70/16/4 71/15/4 69/10/4 68/11/4
f 72/19/4 73/18/4 71/15/4 70/16/4
f 76/4/4 77/23/4 73/18/4 72/19/4
f 77/23/4 78/24/4 74/22/4 73/18/4
f 78/24/4 79/3/4 75/21/4 74/22/4
f 83/7/4 84/6/4 81/5/4 80/1/4
f 84/6/4 85/9/4 82/8/4 81/5/4
f 87/11/4 88/10/4 84/6/4 83/7/4
f 89/14/4 90/13/4 86/12/4 85/9/4
f 91/16/4 92/15/4 88/10/4 87/11/4
f 92/15/4 93/17/4 89/14/4 88/10/4
f 95/19/4 96/18/4 92/15/4 91/16/4
f 97/22/4 98/21/4 94/20/4 93/17/4
f 99/4/4 100/23/4 96/18/4 95/19/4
f 100/23/4 101/24/4 97/22/4 96/18/4
f 106/7/4 107/6/4 103/5/4 102/1/4
f 107/6/4 108/9/4 104/8/4 103/5/4
f 108/9/4 109/12/4 105/2/4 104/8/4
f 110/11/4 111/10/4 107/6/4 106/7/4
f 114/16/4 115/15/4 111/10/4 110/11/4
f 115/15/4 116/17/4 112/14/4 111/10/4
f 116/17/4 117/20/4 113/13/4 112/14/4
f 118/19/4 119/18/4 115/15/4 114/16/4
f 120/4/4 121/23/4 119/18/4 118/19/4
# 65 elements

