mtllib laser_blade.mtl

o laser_blade

v 0.093000 0.372000 -0.093000
v 0.093000 0.372000 0.093000
v 0.062000 0.372000 0.062000
v 0.062000 0.372000 -0.062000
v -0.093000 0.372000 -0.093000
v 0.093000 0.372000 -0.093000
v 0.062000 0.372000 -0.062000
v -0.062000 0.372000 -0.062000
v 0.093000 0.372000 0.093000
v -0.093000 0.372000 0.093000
v -0.062000 0.372000 0.062000
v 0.062000 0.372000 0.062000
v -0.093000 0.372000 -0.093000
v -0.062000 0.372000 -0.062000
v -0.062000 0.372000 0.062000
v -0.093000 0.372000 0.093000
v -0.093000 0.372000 0.093000
v 0.093000 0.372000 0.093000
v 0.093000 0.310000 0.093000
v -0.093000 0.310000 0.093000
v 0.093000 0.372000 0.093000
v 0.093000 0.372000 -0.093000
v 0.093000 0.310000 -0.093000
v 0.093000 0.310000 0.093000
v 0.093000 0.372000 -0.093000
v -0.093000 0.372000 -0.093000
v -0.093000 0.310000 -0.093000
v 0.093000 0.310000 -0.093000
v -0.093000 0.372000 -0.093000
v -0.093000 0.372000 0.093000
v -0.093000 0.310000 0.093000
v -0.093000 0.310000 -0.093000
v -0.093000 0.310000 0.093000
v 0.093000 0.310000 0.093000
v 0.093000 0.310000 -0.093000
v -0.093000 0.310000 -0.093000
v -0.031000 0.310000 0.031000
v 0.031000 0.310000 0.031000
v 0.031000 0.000000 0.031000
v -0.031000 0.000000 0.031000
v 0.031000 0.310000 0.031000
v 0.031000 0.310000 -0.031000
v 0.031000 0.000000 -0.031000
v 0.031000 0.000000 0.031000
v 0.031000 0.310000 -0.031000
v -0.031000 0.310000 -0.031000
v -0.031000 0.000000 -0.031000
v 0.031000 0.000000 -0.031000
v -0.031000 0.310000 -0.031000
v -0.031000 0.310000 0.031000
v -0.031000 0.000000 0.031000
v -0.031000 0.000000 -0.031000
v -0.031000 0.000000 0.031000
v 0.031000 0.000000 0.031000
v 0.031000 0.000000 -0.031000
v -0.031000 0.000000 -0.031000
v 0.062000 0.372000 0.062000
v 0.062000 0.372000 -0.062000
v -0.062000 0.372000 -0.062000
v -0.062000 0.372000 0.062000
v 0.093000 1.426000 -0.093000
v -0.093000 1.426000 -0.093000
v -0.093000 0.379750 -0.093000
v 0.093000 0.379750 -0.093000
v -0.093000 1.426000 -0.093000
v -0.093000 1.426000 0.093000
v -0.093000 0.379750 0.093000
v -0.093000 0.379750 -0.093000
v -0.093000 1.426000 0.093000
v 0.093000 1.426000 0.093000
v 0.093000 0.379750 0.093000
v -0.093000 0.379750 0.093000
v 0.093000 1.426000 0.093000
v 0.093000 1.426000 -0.093000
v 0.093000 0.379750 -0.093000
v 0.093000 0.379750 0.093000
v 0.093000 1.426000 0.093000
v -0.093000 1.426000 0.093000
v 0.093000 1.426000 -0.093000
v -0.093000 0.379750 0.093000
v 0.093000 0.379750 0.093000
v 0.093000 0.379750 -0.093000
v -0.093000 0.379750 -0.093000
v -0.093000 1.426000 -0.093000
v -0.031000 0.372000 0.031000
v 0.031000 0.372000 0.031000
v 0.031000 0.372000 -0.031000
v -0.031000 0.372000 -0.031000
v 0.062000 1.395000 -0.062000
v -0.062000 1.395000 -0.062000
v -0.062000 0.379750 -0.062000
v 0.062000 0.379750 -0.062000
v -0.062000 1.395000 -0.062000
v -0.062000 1.395000 0.062000
v -0.062000 0.379750 0.062000
v -0.062000 0.379750 -0.062000
v -0.062000 1.395000 0.062000
v 0.062000 1.395000 0.062000
v 0.062000 0.379750 0.062000
v -0.062000 0.379750 0.062000
v 0.062000 1.395000 0.062000
v 0.062000 1.395000 -0.062000
v 0.062000 0.379750 -0.062000
v 0.062000 0.379750 0.062000
v 0.062000 1.395000 0.062000
v -0.062000 1.395000 0.062000
v 0.062000 1.395000 -0.062000
v -0.062000 0.379750 0.062000
v 0.062000 0.379750 0.062000
v 0.062000 0.379750 -0.062000
v -0.062000 0.379750 -0.062000
v -0.062000 1.395000 -0.062000
v -0.031000 0.372000 0.031000
v 0.031000 0.372000 0.031000
v 0.031000 0.372000 -0.031000
v -0.031000 0.372000 -0.031000
v -0.031000 1.364000 0.031000
v 0.031000 1.364000 0.031000
v 0.031000 0.372000 0.031000
v -0.031000 0.372000 0.031000
v 0.031000 1.364000 0.031000
v 0.031000 1.364000 -0.031000
v 0.031000 0.372000 -0.031000
v 0.031000 0.372000 0.031000
v 0.031000 1.364000 -0.031000
v -0.031000 1.364000 -0.031000
v -0.031000 0.372000 -0.031000
v 0.031000 0.372000 -0.031000
v -0.031000 1.364000 -0.031000
v -0.031000 1.364000 0.031000
v -0.031000 0.372000 0.031000
v -0.031000 0.372000 -0.031000
v 0.031000 1.364000 -0.031000
v 0.031000 1.364000 0.031000
v -0.031000 1.364000 0.031000
v -0.031000 1.364000 -0.031000
v -0.062000 1.395000 0.062000
v 0.062000 1.395000 0.062000
v 0.062000 0.372000 0.062000
v -0.062000 0.372000 0.062000
v 0.062000 1.395000 0.062000
v 0.062000 1.395000 -0.062000
v 0.062000 0.372000 -0.062000
v 0.062000 0.372000 0.062000
v 0.062000 1.395000 -0.062000
v -0.062000 1.395000 -0.062000
v -0.062000 0.372000 -0.062000
v 0.062000 0.372000 -0.062000
v -0.062000 1.395000 -0.062000
v -0.062000 1.395000 0.062000
v -0.062000 0.372000 0.062000
v -0.062000 0.372000 -0.062000
v -0.062000 1.395000 -0.062000
v 0.062000 1.395000 -0.062000
v 0.062000 1.395000 0.062000
v -0.062000 1.395000 0.062000
v 0.062000 0.372000 0.062000
v -0.062000 0.372000 0.062000
v 0.062000 0.372000 -0.062000
v -0.062000 0.372000 -0.062000
v -0.093000 1.426000 0.093000
v 0.093000 1.426000 0.093000
v 0.093000 0.372000 0.093000
v -0.093000 0.372000 0.093000
v 0.093000 1.426000 0.093000
v 0.093000 1.426000 -0.093000
v 0.093000 0.372000 -0.093000
v 0.093000 0.372000 0.093000
v 0.093000 1.426000 -0.093000
v -0.093000 1.426000 -0.093000
v -0.093000 0.372000 -0.093000
v 0.093000 0.372000 -0.093000
v -0.093000 1.426000 -0.093000
v -0.093000 1.426000 0.093000
v -0.093000 0.372000 0.093000
v -0.093000 0.372000 -0.093000
v -0.093000 1.426000 -0.093000
v 0.093000 1.426000 -0.093000
v 0.093000 1.426000 0.093000
v -0.093000 1.426000 0.093000
v -0.093000 0.372000 0.093000
v 0.093000 0.372000 0.093000
v 0.093000 0.372000 -0.093000
v -0.093000 0.372000 -0.093000
v 0.062000 1.395000 -0.062000
v -0.062000 1.395000 -0.062000
v -0.062000 0.372000 -0.062000
v 0.062000 0.372000 -0.062000
v -0.062000 1.395000 -0.062000
v -0.062000 1.395000 0.062000
v -0.062000 0.372000 0.062000
v -0.062000 0.372000 -0.062000
v -0.062000 1.395000 0.062000
v 0.062000 1.395000 0.062000
v 0.062000 0.372000 0.062000
v -0.062000 0.372000 0.062000
v 0.062000 1.395000 0.062000
v 0.062000 1.395000 -0.062000
v 0.062000 0.372000 -0.062000
v 0.062000 0.372000 0.062000
v 0.062000 1.395000 0.062000
v -0.062000 1.395000 0.062000
v -0.062000 1.395000 -0.062000
v 0.062000 1.395000 -0.062000
v -0.062000 0.372000 0.062000
v 0.062000 0.372000 0.062000
v 0.062000 0.372000 -0.062000
v -0.062000 0.372000 -0.062000
v -0.031000 1.364000 0.031000
v 0.031000 1.364000 0.031000
v 0.031000 0.372000 0.031000
v -0.031000 0.372000 0.031000
v 0.031000 1.364000 0.031000
v 0.031000 1.364000 -0.031000
v 0.031000 0.372000 -0.031000
v 0.031000 0.372000 0.031000
v 0.031000 1.364000 -0.031000
v -0.031000 1.364000 -0.031000
v -0.031000 0.372000 -0.031000
v 0.031000 0.372000 -0.031000
v -0.031000 1.364000 -0.031000
v -0.031000 1.364000 0.031000
v -0.031000 0.372000 0.031000
v -0.031000 0.372000 -0.031000
v -0.031000 1.364000 -0.031000
v 0.031000 1.364000 -0.031000
v 0.031000 1.364000 0.031000
v -0.031000 1.364000 0.031000
v 0.031000 0.372000 0.031000
v 0.031000 0.372000 -0.031000
v -0.031000 0.372000 -0.031000
v -0.031000 0.372000 0.031000

vt 0.21875 0.09375
vt 0.21875 0.00000
vt 0.234375 0.015625
vt 0.234375 0.078125
vt 0.31250 0.09375
vt 0.296875 0.078125
vt 0.31250 0.00000
vt 0.296875 0.015625
vt 0.40625 0.09375
vt 0.50000 0.09375
vt 0.50000 0.12500
vt 0.40625 0.12500
vt 0.12500 0.09375
vt 0.21875 0.12500
vt 0.12500 0.12500
vt 0.31250 0.12500
vt 0.40625 0.00000
vt 0.09375 0.03125
vt 0.12500 0.03125
vt 0.12500 0.18750
vt 0.09375 0.18750
vt 0.00000 0.03125
vt 0.03125 0.03125
vt 0.03125 0.18750
vt 0.00000 0.18750
vt 0.06250 0.03125
vt 0.06250 0.18750
vt 0.09375 0.00000
vt 0.06250 0.00000
vt 0.75000 0.21875
vt 0.75000 0.78125
vt 0.65625 0.78125
vt 0.65625 0.21875
vt 0.46875 0.21875
vt 0.46875 0.78125
vt 0.37500 0.78125
vt 0.37500 0.21875
vt 0.56250 0.21875
vt 0.56250 0.78125
vt 0.56250 0.12500
vt 0.46875 0.12500
vt 0.62500 0.15625
vt 0.59375 0.15625
vt 0.65625 0.12500
vt 0.59375 0.18750
vt 0.62500 0.18750
vt 0.37500 0.75000
vt 0.31250 0.75000
vt 0.31250 0.21875
vt 0.18750 0.21875
vt 0.18750 0.75000
vt 0.12500 0.75000
vt 0.12500 0.21875
vt 0.25000 0.21875
vt 0.25000 0.75000
vt 0.25000 0.15625
vt 0.18750 0.15625
vt 0.296875 0.171875
vt 0.265625 0.171875
vt 0.31250 0.15625
vt 0.265625 0.203125
vt 0.296875 0.203125
vt 0.09375 0.21875
vt 0.12500 0.71875
vt 0.09375 0.71875
vt 0.00000 0.21875
vt 0.03125 0.21875
vt 0.03125 0.71875
vt 0.00000 0.71875
vt 0.06250 0.21875
vt 0.06250 0.71875

vn 0.00000 1.00000 0.00000
vn 0.00000 0.00000 1.00000
vn 1.00000 0.00000 0.00000
vn 0.00000 0.00000 -1.00000
vn -1.00000 0.00000 0.00000
vn 0.00000 -1.00000 0.00000
vn 0.06226 0.99612 -0.06226
vn -0.06226 0.99612 -0.06226
vn -0.06226 0.99612 0.06226
vn 0.06226 0.99612 0.06226
vn 0.12309 0.98473 -0.12309
vn -0.12309 0.98473 -0.12309
vn -0.12309 0.98473 0.12309
vn 0.12309 0.98473 0.12309

g hilt
usemtl mat_hilt
f 4/4/1 3/3/1 2/2/1 1/1/1
f 8/6/1 7/4/1 6/1/1 5/5/1
f 12/3/1 11/8/1 10/7/1 9/2/1
f 16/7/1 15/8/1 14/6/1 13/5/1
f 20/12/2 19/11/2 18/10/2 17/9/2
f 24/15/3 23/14/3 22/1/3 21/13/3
f 28/14/4 27/16/4 26/5/4 25/1/4
f 32/16/5 31/12/5 30/9/5 29/5/5
f 36/9/6 35/5/6 34/7/6 33/17/6
f 40/21/2 39/20/2 38/19/2 37/18/2
f 44/25/3 43/24/3 42/23/3 41/22/3
f 48/24/4 47/27/4 46/26/4 45/23/4
f 52/27/5 51/21/5 50/18/5 49/26/5
f 56/18/6 55/26/6 54/29/6 53/28/6
g hilt_0_2
f 58/4/1 59/6/1 60/8/1 57/3/1
g blade_out_2
usemtl mat_blade_out
f 62/33/2 63/32/2 64/31/2 61/30/2
f 66/37/3 67/36/3 68/35/3 65/34/3
f 70/34/4 71/35/4 72/39/4 69/38/4
f 74/38/5 75/39/5 76/32/5 73/33/5
f 84/38/6 79/34/6 77/41/6 78/40/6
f 80/44/7 81/40/8 86/43/8 85/42/7
f 81/40/8 82/38/9 87/45/9 86/43/8
f 82/38/9 83/33/10 88/46/10 87/45/9
f 83/33/10 80/44/7 85/42/7 88/46/10
g blade_mid_2
usemtl mat_blade_mid
f 90/49/2 91/48/2 92/47/2 89/37/2
f 94/53/3 95/52/3 96/51/3 93/50/3
f 98/50/4 99/51/4 100/55/4 97/54/4
f 102/54/5 103/55/5 104/48/5 101/49/5
f 112/54/6 107/50/6 105/57/6 106/56/6
f 108/60/11 109/56/12 114/59/12 113/58/11
f 109/56/12 110/54/13 115/61/13 114/59/12
f 110/54/13 111/49/14 116/62/14 115/61/13
f 111/49/14 108/60/11 113/58/11 116/62/14
g blade_in_0_2
usemtl mat_blade_in
f 120/65/2 119/64/2 118/53/2 117/63/2
f 124/69/3 123/68/3 122/67/3 121/66/3
f 128/68/4 127/71/4 126/70/4 125/67/4
f 132/71/5 131/65/5 130/63/5 129/70/5
f 134/24/1 133/67/1 136/70/1 135/27/1
g blade_mid_0
usemtl mat_blade_mid
f 140/48/2 139/47/2 138/37/2 137/49/2
f 144/52/3 143/51/3 142/50/3 141/53/3
f 148/51/4 147/55/4 146/54/4 145/50/4
f 152/55/5 151/48/5 150/49/5 149/54/5
f 156/56/1 155/57/1 154/50/1 153/54/1
f 157/56/6 158/60/6 160/49/6 159/54/6
g blade_out_0
usemtl mat_blade_out
f 164/32/2 163/31/2 162/30/2 161/33/2
f 168/36/3 167/35/3 166/34/3 165/37/3
f 172/35/4 171/39/4 170/38/4 169/34/4
f 176/39/5 175/32/5 174/33/5 173/38/5
f 180/40/1 179/41/1 178/34/1 177/38/1
f 184/33/6 183/38/6 182/40/6 181/44/6
g blade_out_1
usemtl mat_blade_out_1
f 186/49/2 187/48/2 188/47/2 185/37/2
f 190/53/3 191/52/3 192/51/3 189/50/3
f 194/50/4 195/51/4 196/55/4 193/54/4
f 198/54/5 199/55/5 200/48/5 197/49/5
f 202/60/6 203/49/6 204/54/6 201/56/6
f 206/57/1 207/50/1 208/54/1 205/56/1
g blade_in_1
usemtl mat_blade_in_1
f 212/65/2 211/64/2 210/53/2 209/63/2
f 216/69/3 215/68/3 214/67/3 213/66/3
f 220/68/4 219/71/4 218/70/4 217/67/4
f 224/71/5 223/65/5 222/63/5 221/70/5
f 228/27/1 227/24/1 226/67/1 225/70/1
f 232/21/6 231/63/6 230/70/6 229/27/6

